<?xml version="1.0" encoding="UTF-8" standalone="no"?>
<svg>
<metadata>built for 'CodeUS' braille table on Sun Dec 07 11:53:11 CET 2014</metadata>
<defs>
<font horiz-adv-x="760" id="Braille-CodeUS" vert-adv-y="">
<font-face ascent="660" descent="-250" font-family="Braille" font-stretch="normal" font-weight="normal" units-per-em="1024"/>
<missing-glyph/>
<glyph d="M 80 580 m -20, 0 a 20,20 0 1,1 40,0 a 20,20 0 1,1 -40,0 z M 80 330 m -20, 0 a 20,20 0 1,1 40,0 a 20,20 0 1,1 -40,0 z M 80 80 m -20, 0 a 20,20 0 1,1 40,0 a 20,20 0 1,1 -40,0 z M 330 580 m -20, 0 a 20,20 0 1,1 40,0 a 20,20 0 1,1 -40,0 z M 330 330 m -20, 0 a 20,20 0 1,1 40,0 a 20,20 0 1,1 -40,0 z M 330 80 m -20, 0 a 20,20 0 1,1 40,0 a 20,20 0 1,1 -40,0 z " horiz-adv-x="760" unicode=" "/>
<glyph d="M 80 580 m -80, 0 a 80,80 0 1,1 160,0 a 80,80 0 1,1 -160,0 z M 80 330 m -20, 0 a 20,20 0 1,1 40,0 a 20,20 0 1,1 -40,0 z M 80 80 m -20, 0 a 20,20 0 1,1 40,0 a 20,20 0 1,1 -40,0 z M 330 580 m -20, 0 a 20,20 0 1,1 40,0 a 20,20 0 1,1 -40,0 z M 330 330 m -20, 0 a 20,20 0 1,1 40,0 a 20,20 0 1,1 -40,0 z M 330 80 m -20, 0 a 20,20 0 1,1 40,0 a 20,20 0 1,1 -40,0 z " horiz-adv-x="760" unicode="A"/>
<glyph d="M 80 580 m -20, 0 a 20,20 0 1,1 40,0 a 20,20 0 1,1 -40,0 z M 80 330 m -80, 0 a 80,80 0 1,1 160,0 a 80,80 0 1,1 -160,0 z M 80 80 m -20, 0 a 20,20 0 1,1 40,0 a 20,20 0 1,1 -40,0 z M 330 580 m -20, 0 a 20,20 0 1,1 40,0 a 20,20 0 1,1 -40,0 z M 330 330 m -20, 0 a 20,20 0 1,1 40,0 a 20,20 0 1,1 -40,0 z M 330 80 m -20, 0 a 20,20 0 1,1 40,0 a 20,20 0 1,1 -40,0 z " horiz-adv-x="760" unicode="1"/>
<glyph d="M 80 580 m -80, 0 a 80,80 0 1,1 160,0 a 80,80 0 1,1 -160,0 z M 80 330 m -80, 0 a 80,80 0 1,1 160,0 a 80,80 0 1,1 -160,0 z M 80 80 m -20, 0 a 20,20 0 1,1 40,0 a 20,20 0 1,1 -40,0 z M 330 580 m -20, 0 a 20,20 0 1,1 40,0 a 20,20 0 1,1 -40,0 z M 330 330 m -20, 0 a 20,20 0 1,1 40,0 a 20,20 0 1,1 -40,0 z M 330 80 m -20, 0 a 20,20 0 1,1 40,0 a 20,20 0 1,1 -40,0 z " horiz-adv-x="760" unicode="B"/>
<glyph d="M 80 580 m -20, 0 a 20,20 0 1,1 40,0 a 20,20 0 1,1 -40,0 z M 80 330 m -20, 0 a 20,20 0 1,1 40,0 a 20,20 0 1,1 -40,0 z M 80 80 m -80, 0 a 80,80 0 1,1 160,0 a 80,80 0 1,1 -160,0 z M 330 580 m -20, 0 a 20,20 0 1,1 40,0 a 20,20 0 1,1 -40,0 z M 330 330 m -20, 0 a 20,20 0 1,1 40,0 a 20,20 0 1,1 -40,0 z M 330 80 m -20, 0 a 20,20 0 1,1 40,0 a 20,20 0 1,1 -40,0 z " horiz-adv-x="760" unicode="'"/>
<glyph d="M 80 580 m -80, 0 a 80,80 0 1,1 160,0 a 80,80 0 1,1 -160,0 z M 80 330 m -20, 0 a 20,20 0 1,1 40,0 a 20,20 0 1,1 -40,0 z M 80 80 m -80, 0 a 80,80 0 1,1 160,0 a 80,80 0 1,1 -160,0 z M 330 580 m -20, 0 a 20,20 0 1,1 40,0 a 20,20 0 1,1 -40,0 z M 330 330 m -20, 0 a 20,20 0 1,1 40,0 a 20,20 0 1,1 -40,0 z M 330 80 m -20, 0 a 20,20 0 1,1 40,0 a 20,20 0 1,1 -40,0 z " horiz-adv-x="760" unicode="K"/>
<glyph d="M 80 580 m -20, 0 a 20,20 0 1,1 40,0 a 20,20 0 1,1 -40,0 z M 80 330 m -80, 0 a 80,80 0 1,1 160,0 a 80,80 0 1,1 -160,0 z M 80 80 m -80, 0 a 80,80 0 1,1 160,0 a 80,80 0 1,1 -160,0 z M 330 580 m -20, 0 a 20,20 0 1,1 40,0 a 20,20 0 1,1 -40,0 z M 330 330 m -20, 0 a 20,20 0 1,1 40,0 a 20,20 0 1,1 -40,0 z M 330 80 m -20, 0 a 20,20 0 1,1 40,0 a 20,20 0 1,1 -40,0 z " horiz-adv-x="760" unicode="2"/>
<glyph d="M 80 580 m -80, 0 a 80,80 0 1,1 160,0 a 80,80 0 1,1 -160,0 z M 80 330 m -80, 0 a 80,80 0 1,1 160,0 a 80,80 0 1,1 -160,0 z M 80 80 m -80, 0 a 80,80 0 1,1 160,0 a 80,80 0 1,1 -160,0 z M 330 580 m -20, 0 a 20,20 0 1,1 40,0 a 20,20 0 1,1 -40,0 z M 330 330 m -20, 0 a 20,20 0 1,1 40,0 a 20,20 0 1,1 -40,0 z M 330 80 m -20, 0 a 20,20 0 1,1 40,0 a 20,20 0 1,1 -40,0 z " horiz-adv-x="760" unicode="L"/>
<glyph d="M 80 580 m -20, 0 a 20,20 0 1,1 40,0 a 20,20 0 1,1 -40,0 z M 80 330 m -20, 0 a 20,20 0 1,1 40,0 a 20,20 0 1,1 -40,0 z M 80 80 m -20, 0 a 20,20 0 1,1 40,0 a 20,20 0 1,1 -40,0 z M 330 580 m -80, 0 a 80,80 0 1,1 160,0 a 80,80 0 1,1 -160,0 z M 330 330 m -20, 0 a 20,20 0 1,1 40,0 a 20,20 0 1,1 -40,0 z M 330 80 m -20, 0 a 20,20 0 1,1 40,0 a 20,20 0 1,1 -40,0 z " horiz-adv-x="760" unicode="@"/>
<glyph d="M 80 580 m -80, 0 a 80,80 0 1,1 160,0 a 80,80 0 1,1 -160,0 z M 80 330 m -20, 0 a 20,20 0 1,1 40,0 a 20,20 0 1,1 -40,0 z M 80 80 m -20, 0 a 20,20 0 1,1 40,0 a 20,20 0 1,1 -40,0 z M 330 580 m -80, 0 a 80,80 0 1,1 160,0 a 80,80 0 1,1 -160,0 z M 330 330 m -20, 0 a 20,20 0 1,1 40,0 a 20,20 0 1,1 -40,0 z M 330 80 m -20, 0 a 20,20 0 1,1 40,0 a 20,20 0 1,1 -40,0 z " horiz-adv-x="760" unicode="C"/>
<glyph d="M 80 580 m -20, 0 a 20,20 0 1,1 40,0 a 20,20 0 1,1 -40,0 z M 80 330 m -80, 0 a 80,80 0 1,1 160,0 a 80,80 0 1,1 -160,0 z M 80 80 m -20, 0 a 20,20 0 1,1 40,0 a 20,20 0 1,1 -40,0 z M 330 580 m -80, 0 a 80,80 0 1,1 160,0 a 80,80 0 1,1 -160,0 z M 330 330 m -20, 0 a 20,20 0 1,1 40,0 a 20,20 0 1,1 -40,0 z M 330 80 m -20, 0 a 20,20 0 1,1 40,0 a 20,20 0 1,1 -40,0 z " horiz-adv-x="760" unicode="I"/>
<glyph d="M 80 580 m -80, 0 a 80,80 0 1,1 160,0 a 80,80 0 1,1 -160,0 z M 80 330 m -80, 0 a 80,80 0 1,1 160,0 a 80,80 0 1,1 -160,0 z M 80 80 m -20, 0 a 20,20 0 1,1 40,0 a 20,20 0 1,1 -40,0 z M 330 580 m -80, 0 a 80,80 0 1,1 160,0 a 80,80 0 1,1 -160,0 z M 330 330 m -20, 0 a 20,20 0 1,1 40,0 a 20,20 0 1,1 -40,0 z M 330 80 m -20, 0 a 20,20 0 1,1 40,0 a 20,20 0 1,1 -40,0 z " horiz-adv-x="760" unicode="F"/>
<glyph d="M 80 580 m -20, 0 a 20,20 0 1,1 40,0 a 20,20 0 1,1 -40,0 z M 80 330 m -20, 0 a 20,20 0 1,1 40,0 a 20,20 0 1,1 -40,0 z M 80 80 m -80, 0 a 80,80 0 1,1 160,0 a 80,80 0 1,1 -160,0 z M 330 580 m -80, 0 a 80,80 0 1,1 160,0 a 80,80 0 1,1 -160,0 z M 330 330 m -20, 0 a 20,20 0 1,1 40,0 a 20,20 0 1,1 -40,0 z M 330 80 m -20, 0 a 20,20 0 1,1 40,0 a 20,20 0 1,1 -40,0 z " horiz-adv-x="760" unicode="/"/>
<glyph d="M 80 580 m -80, 0 a 80,80 0 1,1 160,0 a 80,80 0 1,1 -160,0 z M 80 330 m -20, 0 a 20,20 0 1,1 40,0 a 20,20 0 1,1 -40,0 z M 80 80 m -80, 0 a 80,80 0 1,1 160,0 a 80,80 0 1,1 -160,0 z M 330 580 m -80, 0 a 80,80 0 1,1 160,0 a 80,80 0 1,1 -160,0 z M 330 330 m -20, 0 a 20,20 0 1,1 40,0 a 20,20 0 1,1 -40,0 z M 330 80 m -20, 0 a 20,20 0 1,1 40,0 a 20,20 0 1,1 -40,0 z " horiz-adv-x="760" unicode="M"/>
<glyph d="M 80 580 m -20, 0 a 20,20 0 1,1 40,0 a 20,20 0 1,1 -40,0 z M 80 330 m -80, 0 a 80,80 0 1,1 160,0 a 80,80 0 1,1 -160,0 z M 80 80 m -80, 0 a 80,80 0 1,1 160,0 a 80,80 0 1,1 -160,0 z M 330 580 m -80, 0 a 80,80 0 1,1 160,0 a 80,80 0 1,1 -160,0 z M 330 330 m -20, 0 a 20,20 0 1,1 40,0 a 20,20 0 1,1 -40,0 z M 330 80 m -20, 0 a 20,20 0 1,1 40,0 a 20,20 0 1,1 -40,0 z " horiz-adv-x="760" unicode="S"/>
<glyph d="M 80 580 m -80, 0 a 80,80 0 1,1 160,0 a 80,80 0 1,1 -160,0 z M 80 330 m -80, 0 a 80,80 0 1,1 160,0 a 80,80 0 1,1 -160,0 z M 80 80 m -80, 0 a 80,80 0 1,1 160,0 a 80,80 0 1,1 -160,0 z M 330 580 m -80, 0 a 80,80 0 1,1 160,0 a 80,80 0 1,1 -160,0 z M 330 330 m -20, 0 a 20,20 0 1,1 40,0 a 20,20 0 1,1 -40,0 z M 330 80 m -20, 0 a 20,20 0 1,1 40,0 a 20,20 0 1,1 -40,0 z " horiz-adv-x="760" unicode="P"/>
<glyph d="M 80 580 m -20, 0 a 20,20 0 1,1 40,0 a 20,20 0 1,1 -40,0 z M 80 330 m -20, 0 a 20,20 0 1,1 40,0 a 20,20 0 1,1 -40,0 z M 80 80 m -20, 0 a 20,20 0 1,1 40,0 a 20,20 0 1,1 -40,0 z M 330 580 m -20, 0 a 20,20 0 1,1 40,0 a 20,20 0 1,1 -40,0 z M 330 330 m -80, 0 a 80,80 0 1,1 160,0 a 80,80 0 1,1 -160,0 z M 330 80 m -20, 0 a 20,20 0 1,1 40,0 a 20,20 0 1,1 -40,0 z " horiz-adv-x="760" unicode="&quot;"/>
<glyph d="M 80 580 m -80, 0 a 80,80 0 1,1 160,0 a 80,80 0 1,1 -160,0 z M 80 330 m -20, 0 a 20,20 0 1,1 40,0 a 20,20 0 1,1 -40,0 z M 80 80 m -20, 0 a 20,20 0 1,1 40,0 a 20,20 0 1,1 -40,0 z M 330 580 m -20, 0 a 20,20 0 1,1 40,0 a 20,20 0 1,1 -40,0 z M 330 330 m -80, 0 a 80,80 0 1,1 160,0 a 80,80 0 1,1 -160,0 z M 330 80 m -20, 0 a 20,20 0 1,1 40,0 a 20,20 0 1,1 -40,0 z " horiz-adv-x="760" unicode="E"/>
<glyph d="M 80 580 m -20, 0 a 20,20 0 1,1 40,0 a 20,20 0 1,1 -40,0 z M 80 330 m -80, 0 a 80,80 0 1,1 160,0 a 80,80 0 1,1 -160,0 z M 80 80 m -20, 0 a 20,20 0 1,1 40,0 a 20,20 0 1,1 -40,0 z M 330 580 m -20, 0 a 20,20 0 1,1 40,0 a 20,20 0 1,1 -40,0 z M 330 330 m -80, 0 a 80,80 0 1,1 160,0 a 80,80 0 1,1 -160,0 z M 330 80 m -20, 0 a 20,20 0 1,1 40,0 a 20,20 0 1,1 -40,0 z " horiz-adv-x="760" unicode="3"/>
<glyph d="M 80 580 m -80, 0 a 80,80 0 1,1 160,0 a 80,80 0 1,1 -160,0 z M 80 330 m -80, 0 a 80,80 0 1,1 160,0 a 80,80 0 1,1 -160,0 z M 80 80 m -20, 0 a 20,20 0 1,1 40,0 a 20,20 0 1,1 -40,0 z M 330 580 m -20, 0 a 20,20 0 1,1 40,0 a 20,20 0 1,1 -40,0 z M 330 330 m -80, 0 a 80,80 0 1,1 160,0 a 80,80 0 1,1 -160,0 z M 330 80 m -20, 0 a 20,20 0 1,1 40,0 a 20,20 0 1,1 -40,0 z " horiz-adv-x="760" unicode="H"/>
<glyph d="M 80 580 m -20, 0 a 20,20 0 1,1 40,0 a 20,20 0 1,1 -40,0 z M 80 330 m -20, 0 a 20,20 0 1,1 40,0 a 20,20 0 1,1 -40,0 z M 80 80 m -80, 0 a 80,80 0 1,1 160,0 a 80,80 0 1,1 -160,0 z M 330 580 m -20, 0 a 20,20 0 1,1 40,0 a 20,20 0 1,1 -40,0 z M 330 330 m -80, 0 a 80,80 0 1,1 160,0 a 80,80 0 1,1 -160,0 z M 330 80 m -20, 0 a 20,20 0 1,1 40,0 a 20,20 0 1,1 -40,0 z " horiz-adv-x="760" unicode="9"/>
<glyph d="M 80 580 m -80, 0 a 80,80 0 1,1 160,0 a 80,80 0 1,1 -160,0 z M 80 330 m -20, 0 a 20,20 0 1,1 40,0 a 20,20 0 1,1 -40,0 z M 80 80 m -80, 0 a 80,80 0 1,1 160,0 a 80,80 0 1,1 -160,0 z M 330 580 m -20, 0 a 20,20 0 1,1 40,0 a 20,20 0 1,1 -40,0 z M 330 330 m -80, 0 a 80,80 0 1,1 160,0 a 80,80 0 1,1 -160,0 z M 330 80 m -20, 0 a 20,20 0 1,1 40,0 a 20,20 0 1,1 -40,0 z " horiz-adv-x="760" unicode="O"/>
<glyph d="M 80 580 m -20, 0 a 20,20 0 1,1 40,0 a 20,20 0 1,1 -40,0 z M 80 330 m -80, 0 a 80,80 0 1,1 160,0 a 80,80 0 1,1 -160,0 z M 80 80 m -80, 0 a 80,80 0 1,1 160,0 a 80,80 0 1,1 -160,0 z M 330 580 m -20, 0 a 20,20 0 1,1 40,0 a 20,20 0 1,1 -40,0 z M 330 330 m -80, 0 a 80,80 0 1,1 160,0 a 80,80 0 1,1 -160,0 z M 330 80 m -20, 0 a 20,20 0 1,1 40,0 a 20,20 0 1,1 -40,0 z " horiz-adv-x="760" unicode="6"/>
<glyph d="M 80 580 m -80, 0 a 80,80 0 1,1 160,0 a 80,80 0 1,1 -160,0 z M 80 330 m -80, 0 a 80,80 0 1,1 160,0 a 80,80 0 1,1 -160,0 z M 80 80 m -80, 0 a 80,80 0 1,1 160,0 a 80,80 0 1,1 -160,0 z M 330 580 m -20, 0 a 20,20 0 1,1 40,0 a 20,20 0 1,1 -40,0 z M 330 330 m -80, 0 a 80,80 0 1,1 160,0 a 80,80 0 1,1 -160,0 z M 330 80 m -20, 0 a 20,20 0 1,1 40,0 a 20,20 0 1,1 -40,0 z " horiz-adv-x="760" unicode="R"/>
<glyph d="M 80 580 m -20, 0 a 20,20 0 1,1 40,0 a 20,20 0 1,1 -40,0 z M 80 330 m -20, 0 a 20,20 0 1,1 40,0 a 20,20 0 1,1 -40,0 z M 80 80 m -20, 0 a 20,20 0 1,1 40,0 a 20,20 0 1,1 -40,0 z M 330 580 m -80, 0 a 80,80 0 1,1 160,0 a 80,80 0 1,1 -160,0 z M 330 330 m -80, 0 a 80,80 0 1,1 160,0 a 80,80 0 1,1 -160,0 z M 330 80 m -20, 0 a 20,20 0 1,1 40,0 a 20,20 0 1,1 -40,0 z " horiz-adv-x="760" unicode="^"/>
<glyph d="M 80 580 m -80, 0 a 80,80 0 1,1 160,0 a 80,80 0 1,1 -160,0 z M 80 330 m -20, 0 a 20,20 0 1,1 40,0 a 20,20 0 1,1 -40,0 z M 80 80 m -20, 0 a 20,20 0 1,1 40,0 a 20,20 0 1,1 -40,0 z M 330 580 m -80, 0 a 80,80 0 1,1 160,0 a 80,80 0 1,1 -160,0 z M 330 330 m -80, 0 a 80,80 0 1,1 160,0 a 80,80 0 1,1 -160,0 z M 330 80 m -20, 0 a 20,20 0 1,1 40,0 a 20,20 0 1,1 -40,0 z " horiz-adv-x="760" unicode="D"/>
<glyph d="M 80 580 m -20, 0 a 20,20 0 1,1 40,0 a 20,20 0 1,1 -40,0 z M 80 330 m -80, 0 a 80,80 0 1,1 160,0 a 80,80 0 1,1 -160,0 z M 80 80 m -20, 0 a 20,20 0 1,1 40,0 a 20,20 0 1,1 -40,0 z M 330 580 m -80, 0 a 80,80 0 1,1 160,0 a 80,80 0 1,1 -160,0 z M 330 330 m -80, 0 a 80,80 0 1,1 160,0 a 80,80 0 1,1 -160,0 z M 330 80 m -20, 0 a 20,20 0 1,1 40,0 a 20,20 0 1,1 -40,0 z " horiz-adv-x="760" unicode="J"/>
<glyph d="M 80 580 m -80, 0 a 80,80 0 1,1 160,0 a 80,80 0 1,1 -160,0 z M 80 330 m -80, 0 a 80,80 0 1,1 160,0 a 80,80 0 1,1 -160,0 z M 80 80 m -20, 0 a 20,20 0 1,1 40,0 a 20,20 0 1,1 -40,0 z M 330 580 m -80, 0 a 80,80 0 1,1 160,0 a 80,80 0 1,1 -160,0 z M 330 330 m -80, 0 a 80,80 0 1,1 160,0 a 80,80 0 1,1 -160,0 z M 330 80 m -20, 0 a 20,20 0 1,1 40,0 a 20,20 0 1,1 -40,0 z " horiz-adv-x="760" unicode="G"/>
<glyph d="M 80 580 m -20, 0 a 20,20 0 1,1 40,0 a 20,20 0 1,1 -40,0 z M 80 330 m -20, 0 a 20,20 0 1,1 40,0 a 20,20 0 1,1 -40,0 z M 80 80 m -80, 0 a 80,80 0 1,1 160,0 a 80,80 0 1,1 -160,0 z M 330 580 m -80, 0 a 80,80 0 1,1 160,0 a 80,80 0 1,1 -160,0 z M 330 330 m -80, 0 a 80,80 0 1,1 160,0 a 80,80 0 1,1 -160,0 z M 330 80 m -20, 0 a 20,20 0 1,1 40,0 a 20,20 0 1,1 -40,0 z " horiz-adv-x="760" unicode="&gt;"/>
<glyph d="M 80 580 m -80, 0 a 80,80 0 1,1 160,0 a 80,80 0 1,1 -160,0 z M 80 330 m -20, 0 a 20,20 0 1,1 40,0 a 20,20 0 1,1 -40,0 z M 80 80 m -80, 0 a 80,80 0 1,1 160,0 a 80,80 0 1,1 -160,0 z M 330 580 m -80, 0 a 80,80 0 1,1 160,0 a 80,80 0 1,1 -160,0 z M 330 330 m -80, 0 a 80,80 0 1,1 160,0 a 80,80 0 1,1 -160,0 z M 330 80 m -20, 0 a 20,20 0 1,1 40,0 a 20,20 0 1,1 -40,0 z " horiz-adv-x="760" unicode="N"/>
<glyph d="M 80 580 m -20, 0 a 20,20 0 1,1 40,0 a 20,20 0 1,1 -40,0 z M 80 330 m -80, 0 a 80,80 0 1,1 160,0 a 80,80 0 1,1 -160,0 z M 80 80 m -80, 0 a 80,80 0 1,1 160,0 a 80,80 0 1,1 -160,0 z M 330 580 m -80, 0 a 80,80 0 1,1 160,0 a 80,80 0 1,1 -160,0 z M 330 330 m -80, 0 a 80,80 0 1,1 160,0 a 80,80 0 1,1 -160,0 z M 330 80 m -20, 0 a 20,20 0 1,1 40,0 a 20,20 0 1,1 -40,0 z " horiz-adv-x="760" unicode="T"/>
<glyph d="M 80 580 m -80, 0 a 80,80 0 1,1 160,0 a 80,80 0 1,1 -160,0 z M 80 330 m -80, 0 a 80,80 0 1,1 160,0 a 80,80 0 1,1 -160,0 z M 80 80 m -80, 0 a 80,80 0 1,1 160,0 a 80,80 0 1,1 -160,0 z M 330 580 m -80, 0 a 80,80 0 1,1 160,0 a 80,80 0 1,1 -160,0 z M 330 330 m -80, 0 a 80,80 0 1,1 160,0 a 80,80 0 1,1 -160,0 z M 330 80 m -20, 0 a 20,20 0 1,1 40,0 a 20,20 0 1,1 -40,0 z " horiz-adv-x="760" unicode="Q"/>
<glyph d="M 80 580 m -20, 0 a 20,20 0 1,1 40,0 a 20,20 0 1,1 -40,0 z M 80 330 m -20, 0 a 20,20 0 1,1 40,0 a 20,20 0 1,1 -40,0 z M 80 80 m -20, 0 a 20,20 0 1,1 40,0 a 20,20 0 1,1 -40,0 z M 330 580 m -20, 0 a 20,20 0 1,1 40,0 a 20,20 0 1,1 -40,0 z M 330 330 m -20, 0 a 20,20 0 1,1 40,0 a 20,20 0 1,1 -40,0 z M 330 80 m -80, 0 a 80,80 0 1,1 160,0 a 80,80 0 1,1 -160,0 z " horiz-adv-x="760" unicode=","/>
<glyph d="M 80 580 m -80, 0 a 80,80 0 1,1 160,0 a 80,80 0 1,1 -160,0 z M 80 330 m -20, 0 a 20,20 0 1,1 40,0 a 20,20 0 1,1 -40,0 z M 80 80 m -20, 0 a 20,20 0 1,1 40,0 a 20,20 0 1,1 -40,0 z M 330 580 m -20, 0 a 20,20 0 1,1 40,0 a 20,20 0 1,1 -40,0 z M 330 330 m -20, 0 a 20,20 0 1,1 40,0 a 20,20 0 1,1 -40,0 z M 330 80 m -80, 0 a 80,80 0 1,1 160,0 a 80,80 0 1,1 -160,0 z " horiz-adv-x="760" unicode="*"/>
<glyph d="M 80 580 m -20, 0 a 20,20 0 1,1 40,0 a 20,20 0 1,1 -40,0 z M 80 330 m -80, 0 a 80,80 0 1,1 160,0 a 80,80 0 1,1 -160,0 z M 80 80 m -20, 0 a 20,20 0 1,1 40,0 a 20,20 0 1,1 -40,0 z M 330 580 m -20, 0 a 20,20 0 1,1 40,0 a 20,20 0 1,1 -40,0 z M 330 330 m -20, 0 a 20,20 0 1,1 40,0 a 20,20 0 1,1 -40,0 z M 330 80 m -80, 0 a 80,80 0 1,1 160,0 a 80,80 0 1,1 -160,0 z " horiz-adv-x="760" unicode="5"/>
<glyph d="M 80 580 m -80, 0 a 80,80 0 1,1 160,0 a 80,80 0 1,1 -160,0 z M 80 330 m -80, 0 a 80,80 0 1,1 160,0 a 80,80 0 1,1 -160,0 z M 80 80 m -20, 0 a 20,20 0 1,1 40,0 a 20,20 0 1,1 -40,0 z M 330 580 m -20, 0 a 20,20 0 1,1 40,0 a 20,20 0 1,1 -40,0 z M 330 330 m -20, 0 a 20,20 0 1,1 40,0 a 20,20 0 1,1 -40,0 z M 330 80 m -80, 0 a 80,80 0 1,1 160,0 a 80,80 0 1,1 -160,0 z " horiz-adv-x="760" unicode="&lt;"/>
<glyph d="M 80 580 m -20, 0 a 20,20 0 1,1 40,0 a 20,20 0 1,1 -40,0 z M 80 330 m -20, 0 a 20,20 0 1,1 40,0 a 20,20 0 1,1 -40,0 z M 80 80 m -80, 0 a 80,80 0 1,1 160,0 a 80,80 0 1,1 -160,0 z M 330 580 m -20, 0 a 20,20 0 1,1 40,0 a 20,20 0 1,1 -40,0 z M 330 330 m -20, 0 a 20,20 0 1,1 40,0 a 20,20 0 1,1 -40,0 z M 330 80 m -80, 0 a 80,80 0 1,1 160,0 a 80,80 0 1,1 -160,0 z " horiz-adv-x="760" unicode="-"/>
<glyph d="M 80 580 m -80, 0 a 80,80 0 1,1 160,0 a 80,80 0 1,1 -160,0 z M 80 330 m -20, 0 a 20,20 0 1,1 40,0 a 20,20 0 1,1 -40,0 z M 80 80 m -80, 0 a 80,80 0 1,1 160,0 a 80,80 0 1,1 -160,0 z M 330 580 m -20, 0 a 20,20 0 1,1 40,0 a 20,20 0 1,1 -40,0 z M 330 330 m -20, 0 a 20,20 0 1,1 40,0 a 20,20 0 1,1 -40,0 z M 330 80 m -80, 0 a 80,80 0 1,1 160,0 a 80,80 0 1,1 -160,0 z " horiz-adv-x="760" unicode="U"/>
<glyph d="M 80 580 m -20, 0 a 20,20 0 1,1 40,0 a 20,20 0 1,1 -40,0 z M 80 330 m -80, 0 a 80,80 0 1,1 160,0 a 80,80 0 1,1 -160,0 z M 80 80 m -80, 0 a 80,80 0 1,1 160,0 a 80,80 0 1,1 -160,0 z M 330 580 m -20, 0 a 20,20 0 1,1 40,0 a 20,20 0 1,1 -40,0 z M 330 330 m -20, 0 a 20,20 0 1,1 40,0 a 20,20 0 1,1 -40,0 z M 330 80 m -80, 0 a 80,80 0 1,1 160,0 a 80,80 0 1,1 -160,0 z " horiz-adv-x="760" unicode="8"/>
<glyph d="M 80 580 m -80, 0 a 80,80 0 1,1 160,0 a 80,80 0 1,1 -160,0 z M 80 330 m -80, 0 a 80,80 0 1,1 160,0 a 80,80 0 1,1 -160,0 z M 80 80 m -80, 0 a 80,80 0 1,1 160,0 a 80,80 0 1,1 -160,0 z M 330 580 m -20, 0 a 20,20 0 1,1 40,0 a 20,20 0 1,1 -40,0 z M 330 330 m -20, 0 a 20,20 0 1,1 40,0 a 20,20 0 1,1 -40,0 z M 330 80 m -80, 0 a 80,80 0 1,1 160,0 a 80,80 0 1,1 -160,0 z " horiz-adv-x="760" unicode="V"/>
<glyph d="M 80 580 m -20, 0 a 20,20 0 1,1 40,0 a 20,20 0 1,1 -40,0 z M 80 330 m -20, 0 a 20,20 0 1,1 40,0 a 20,20 0 1,1 -40,0 z M 80 80 m -20, 0 a 20,20 0 1,1 40,0 a 20,20 0 1,1 -40,0 z M 330 580 m -80, 0 a 80,80 0 1,1 160,0 a 80,80 0 1,1 -160,0 z M 330 330 m -20, 0 a 20,20 0 1,1 40,0 a 20,20 0 1,1 -40,0 z M 330 80 m -80, 0 a 80,80 0 1,1 160,0 a 80,80 0 1,1 -160,0 z " horiz-adv-x="760" unicode="."/>
<glyph d="M 80 580 m -80, 0 a 80,80 0 1,1 160,0 a 80,80 0 1,1 -160,0 z M 80 330 m -20, 0 a 20,20 0 1,1 40,0 a 20,20 0 1,1 -40,0 z M 80 80 m -20, 0 a 20,20 0 1,1 40,0 a 20,20 0 1,1 -40,0 z M 330 580 m -80, 0 a 80,80 0 1,1 160,0 a 80,80 0 1,1 -160,0 z M 330 330 m -20, 0 a 20,20 0 1,1 40,0 a 20,20 0 1,1 -40,0 z M 330 80 m -80, 0 a 80,80 0 1,1 160,0 a 80,80 0 1,1 -160,0 z " horiz-adv-x="760" unicode="%"/>
<glyph d="M 80 580 m -20, 0 a 20,20 0 1,1 40,0 a 20,20 0 1,1 -40,0 z M 80 330 m -80, 0 a 80,80 0 1,1 160,0 a 80,80 0 1,1 -160,0 z M 80 80 m -20, 0 a 20,20 0 1,1 40,0 a 20,20 0 1,1 -40,0 z M 330 580 m -80, 0 a 80,80 0 1,1 160,0 a 80,80 0 1,1 -160,0 z M 330 330 m -20, 0 a 20,20 0 1,1 40,0 a 20,20 0 1,1 -40,0 z M 330 80 m -80, 0 a 80,80 0 1,1 160,0 a 80,80 0 1,1 -160,0 z " horiz-adv-x="760" unicode="["/>
<glyph d="M 80 580 m -80, 0 a 80,80 0 1,1 160,0 a 80,80 0 1,1 -160,0 z M 80 330 m -80, 0 a 80,80 0 1,1 160,0 a 80,80 0 1,1 -160,0 z M 80 80 m -20, 0 a 20,20 0 1,1 40,0 a 20,20 0 1,1 -40,0 z M 330 580 m -80, 0 a 80,80 0 1,1 160,0 a 80,80 0 1,1 -160,0 z M 330 330 m -20, 0 a 20,20 0 1,1 40,0 a 20,20 0 1,1 -40,0 z M 330 80 m -80, 0 a 80,80 0 1,1 160,0 a 80,80 0 1,1 -160,0 z " horiz-adv-x="760" unicode="$"/>
<glyph d="M 80 580 m -20, 0 a 20,20 0 1,1 40,0 a 20,20 0 1,1 -40,0 z M 80 330 m -20, 0 a 20,20 0 1,1 40,0 a 20,20 0 1,1 -40,0 z M 80 80 m -80, 0 a 80,80 0 1,1 160,0 a 80,80 0 1,1 -160,0 z M 330 580 m -80, 0 a 80,80 0 1,1 160,0 a 80,80 0 1,1 -160,0 z M 330 330 m -20, 0 a 20,20 0 1,1 40,0 a 20,20 0 1,1 -40,0 z M 330 80 m -80, 0 a 80,80 0 1,1 160,0 a 80,80 0 1,1 -160,0 z " horiz-adv-x="760" unicode="+"/>
<glyph d="M 80 580 m -80, 0 a 80,80 0 1,1 160,0 a 80,80 0 1,1 -160,0 z M 80 330 m -20, 0 a 20,20 0 1,1 40,0 a 20,20 0 1,1 -40,0 z M 80 80 m -80, 0 a 80,80 0 1,1 160,0 a 80,80 0 1,1 -160,0 z M 330 580 m -80, 0 a 80,80 0 1,1 160,0 a 80,80 0 1,1 -160,0 z M 330 330 m -20, 0 a 20,20 0 1,1 40,0 a 20,20 0 1,1 -40,0 z M 330 80 m -80, 0 a 80,80 0 1,1 160,0 a 80,80 0 1,1 -160,0 z " horiz-adv-x="760" unicode="X"/>
<glyph d="M 80 580 m -20, 0 a 20,20 0 1,1 40,0 a 20,20 0 1,1 -40,0 z M 80 330 m -80, 0 a 80,80 0 1,1 160,0 a 80,80 0 1,1 -160,0 z M 80 80 m -80, 0 a 80,80 0 1,1 160,0 a 80,80 0 1,1 -160,0 z M 330 580 m -80, 0 a 80,80 0 1,1 160,0 a 80,80 0 1,1 -160,0 z M 330 330 m -20, 0 a 20,20 0 1,1 40,0 a 20,20 0 1,1 -40,0 z M 330 80 m -80, 0 a 80,80 0 1,1 160,0 a 80,80 0 1,1 -160,0 z " horiz-adv-x="760" unicode="!"/>
<glyph d="M 80 580 m -80, 0 a 80,80 0 1,1 160,0 a 80,80 0 1,1 -160,0 z M 80 330 m -80, 0 a 80,80 0 1,1 160,0 a 80,80 0 1,1 -160,0 z M 80 80 m -80, 0 a 80,80 0 1,1 160,0 a 80,80 0 1,1 -160,0 z M 330 580 m -80, 0 a 80,80 0 1,1 160,0 a 80,80 0 1,1 -160,0 z M 330 330 m -20, 0 a 20,20 0 1,1 40,0 a 20,20 0 1,1 -40,0 z M 330 80 m -80, 0 a 80,80 0 1,1 160,0 a 80,80 0 1,1 -160,0 z " horiz-adv-x="760" unicode="&amp;"/>
<glyph d="M 80 580 m -20, 0 a 20,20 0 1,1 40,0 a 20,20 0 1,1 -40,0 z M 80 330 m -20, 0 a 20,20 0 1,1 40,0 a 20,20 0 1,1 -40,0 z M 80 80 m -20, 0 a 20,20 0 1,1 40,0 a 20,20 0 1,1 -40,0 z M 330 580 m -20, 0 a 20,20 0 1,1 40,0 a 20,20 0 1,1 -40,0 z M 330 330 m -80, 0 a 80,80 0 1,1 160,0 a 80,80 0 1,1 -160,0 z M 330 80 m -80, 0 a 80,80 0 1,1 160,0 a 80,80 0 1,1 -160,0 z " horiz-adv-x="760" unicode=";"/>
<glyph d="M 80 580 m -80, 0 a 80,80 0 1,1 160,0 a 80,80 0 1,1 -160,0 z M 80 330 m -20, 0 a 20,20 0 1,1 40,0 a 20,20 0 1,1 -40,0 z M 80 80 m -20, 0 a 20,20 0 1,1 40,0 a 20,20 0 1,1 -40,0 z M 330 580 m -20, 0 a 20,20 0 1,1 40,0 a 20,20 0 1,1 -40,0 z M 330 330 m -80, 0 a 80,80 0 1,1 160,0 a 80,80 0 1,1 -160,0 z M 330 80 m -80, 0 a 80,80 0 1,1 160,0 a 80,80 0 1,1 -160,0 z " horiz-adv-x="760" unicode=":"/>
<glyph d="M 80 580 m -20, 0 a 20,20 0 1,1 40,0 a 20,20 0 1,1 -40,0 z M 80 330 m -80, 0 a 80,80 0 1,1 160,0 a 80,80 0 1,1 -160,0 z M 80 80 m -20, 0 a 20,20 0 1,1 40,0 a 20,20 0 1,1 -40,0 z M 330 580 m -20, 0 a 20,20 0 1,1 40,0 a 20,20 0 1,1 -40,0 z M 330 330 m -80, 0 a 80,80 0 1,1 160,0 a 80,80 0 1,1 -160,0 z M 330 80 m -80, 0 a 80,80 0 1,1 160,0 a 80,80 0 1,1 -160,0 z " horiz-adv-x="760" unicode="4"/>
<glyph d="M 80 580 m -80, 0 a 80,80 0 1,1 160,0 a 80,80 0 1,1 -160,0 z M 80 330 m -80, 0 a 80,80 0 1,1 160,0 a 80,80 0 1,1 -160,0 z M 80 80 m -20, 0 a 20,20 0 1,1 40,0 a 20,20 0 1,1 -40,0 z M 330 580 m -20, 0 a 20,20 0 1,1 40,0 a 20,20 0 1,1 -40,0 z M 330 330 m -80, 0 a 80,80 0 1,1 160,0 a 80,80 0 1,1 -160,0 z M 330 80 m -80, 0 a 80,80 0 1,1 160,0 a 80,80 0 1,1 -160,0 z " horiz-adv-x="760" unicode="\"/>
<glyph d="M 80 580 m -20, 0 a 20,20 0 1,1 40,0 a 20,20 0 1,1 -40,0 z M 80 330 m -20, 0 a 20,20 0 1,1 40,0 a 20,20 0 1,1 -40,0 z M 80 80 m -80, 0 a 80,80 0 1,1 160,0 a 80,80 0 1,1 -160,0 z M 330 580 m -20, 0 a 20,20 0 1,1 40,0 a 20,20 0 1,1 -40,0 z M 330 330 m -80, 0 a 80,80 0 1,1 160,0 a 80,80 0 1,1 -160,0 z M 330 80 m -80, 0 a 80,80 0 1,1 160,0 a 80,80 0 1,1 -160,0 z " horiz-adv-x="760" unicode="0"/>
<glyph d="M 80 580 m -80, 0 a 80,80 0 1,1 160,0 a 80,80 0 1,1 -160,0 z M 80 330 m -20, 0 a 20,20 0 1,1 40,0 a 20,20 0 1,1 -40,0 z M 80 80 m -80, 0 a 80,80 0 1,1 160,0 a 80,80 0 1,1 -160,0 z M 330 580 m -20, 0 a 20,20 0 1,1 40,0 a 20,20 0 1,1 -40,0 z M 330 330 m -80, 0 a 80,80 0 1,1 160,0 a 80,80 0 1,1 -160,0 z M 330 80 m -80, 0 a 80,80 0 1,1 160,0 a 80,80 0 1,1 -160,0 z " horiz-adv-x="760" unicode="Z"/>
<glyph d="M 80 580 m -20, 0 a 20,20 0 1,1 40,0 a 20,20 0 1,1 -40,0 z M 80 330 m -80, 0 a 80,80 0 1,1 160,0 a 80,80 0 1,1 -160,0 z M 80 80 m -80, 0 a 80,80 0 1,1 160,0 a 80,80 0 1,1 -160,0 z M 330 580 m -20, 0 a 20,20 0 1,1 40,0 a 20,20 0 1,1 -40,0 z M 330 330 m -80, 0 a 80,80 0 1,1 160,0 a 80,80 0 1,1 -160,0 z M 330 80 m -80, 0 a 80,80 0 1,1 160,0 a 80,80 0 1,1 -160,0 z " horiz-adv-x="760" unicode="7"/>
<glyph d="M 80 580 m -80, 0 a 80,80 0 1,1 160,0 a 80,80 0 1,1 -160,0 z M 80 330 m -80, 0 a 80,80 0 1,1 160,0 a 80,80 0 1,1 -160,0 z M 80 80 m -80, 0 a 80,80 0 1,1 160,0 a 80,80 0 1,1 -160,0 z M 330 580 m -20, 0 a 20,20 0 1,1 40,0 a 20,20 0 1,1 -40,0 z M 330 330 m -80, 0 a 80,80 0 1,1 160,0 a 80,80 0 1,1 -160,0 z M 330 80 m -80, 0 a 80,80 0 1,1 160,0 a 80,80 0 1,1 -160,0 z " horiz-adv-x="760" unicode="("/>
<glyph d="M 80 580 m -20, 0 a 20,20 0 1,1 40,0 a 20,20 0 1,1 -40,0 z M 80 330 m -20, 0 a 20,20 0 1,1 40,0 a 20,20 0 1,1 -40,0 z M 80 80 m -20, 0 a 20,20 0 1,1 40,0 a 20,20 0 1,1 -40,0 z M 330 580 m -80, 0 a 80,80 0 1,1 160,0 a 80,80 0 1,1 -160,0 z M 330 330 m -80, 0 a 80,80 0 1,1 160,0 a 80,80 0 1,1 -160,0 z M 330 80 m -80, 0 a 80,80 0 1,1 160,0 a 80,80 0 1,1 -160,0 z " horiz-adv-x="760" unicode="_"/>
<glyph d="M 80 580 m -80, 0 a 80,80 0 1,1 160,0 a 80,80 0 1,1 -160,0 z M 80 330 m -20, 0 a 20,20 0 1,1 40,0 a 20,20 0 1,1 -40,0 z M 80 80 m -20, 0 a 20,20 0 1,1 40,0 a 20,20 0 1,1 -40,0 z M 330 580 m -80, 0 a 80,80 0 1,1 160,0 a 80,80 0 1,1 -160,0 z M 330 330 m -80, 0 a 80,80 0 1,1 160,0 a 80,80 0 1,1 -160,0 z M 330 80 m -80, 0 a 80,80 0 1,1 160,0 a 80,80 0 1,1 -160,0 z " horiz-adv-x="760" unicode="?"/>
<glyph d="M 80 580 m -20, 0 a 20,20 0 1,1 40,0 a 20,20 0 1,1 -40,0 z M 80 330 m -80, 0 a 80,80 0 1,1 160,0 a 80,80 0 1,1 -160,0 z M 80 80 m -20, 0 a 20,20 0 1,1 40,0 a 20,20 0 1,1 -40,0 z M 330 580 m -80, 0 a 80,80 0 1,1 160,0 a 80,80 0 1,1 -160,0 z M 330 330 m -80, 0 a 80,80 0 1,1 160,0 a 80,80 0 1,1 -160,0 z M 330 80 m -80, 0 a 80,80 0 1,1 160,0 a 80,80 0 1,1 -160,0 z " horiz-adv-x="760" unicode="W"/>
<glyph d="M 80 580 m -80, 0 a 80,80 0 1,1 160,0 a 80,80 0 1,1 -160,0 z M 80 330 m -80, 0 a 80,80 0 1,1 160,0 a 80,80 0 1,1 -160,0 z M 80 80 m -20, 0 a 20,20 0 1,1 40,0 a 20,20 0 1,1 -40,0 z M 330 580 m -80, 0 a 80,80 0 1,1 160,0 a 80,80 0 1,1 -160,0 z M 330 330 m -80, 0 a 80,80 0 1,1 160,0 a 80,80 0 1,1 -160,0 z M 330 80 m -80, 0 a 80,80 0 1,1 160,0 a 80,80 0 1,1 -160,0 z " horiz-adv-x="760" unicode="]"/>
<glyph d="M 80 580 m -20, 0 a 20,20 0 1,1 40,0 a 20,20 0 1,1 -40,0 z M 80 330 m -20, 0 a 20,20 0 1,1 40,0 a 20,20 0 1,1 -40,0 z M 80 80 m -80, 0 a 80,80 0 1,1 160,0 a 80,80 0 1,1 -160,0 z M 330 580 m -80, 0 a 80,80 0 1,1 160,0 a 80,80 0 1,1 -160,0 z M 330 330 m -80, 0 a 80,80 0 1,1 160,0 a 80,80 0 1,1 -160,0 z M 330 80 m -80, 0 a 80,80 0 1,1 160,0 a 80,80 0 1,1 -160,0 z " horiz-adv-x="760" unicode="#"/>
<glyph d="M 80 580 m -80, 0 a 80,80 0 1,1 160,0 a 80,80 0 1,1 -160,0 z M 80 330 m -20, 0 a 20,20 0 1,1 40,0 a 20,20 0 1,1 -40,0 z M 80 80 m -80, 0 a 80,80 0 1,1 160,0 a 80,80 0 1,1 -160,0 z M 330 580 m -80, 0 a 80,80 0 1,1 160,0 a 80,80 0 1,1 -160,0 z M 330 330 m -80, 0 a 80,80 0 1,1 160,0 a 80,80 0 1,1 -160,0 z M 330 80 m -80, 0 a 80,80 0 1,1 160,0 a 80,80 0 1,1 -160,0 z " horiz-adv-x="760" unicode="Y"/>
<glyph d="M 80 580 m -20, 0 a 20,20 0 1,1 40,0 a 20,20 0 1,1 -40,0 z M 80 330 m -80, 0 a 80,80 0 1,1 160,0 a 80,80 0 1,1 -160,0 z M 80 80 m -80, 0 a 80,80 0 1,1 160,0 a 80,80 0 1,1 -160,0 z M 330 580 m -80, 0 a 80,80 0 1,1 160,0 a 80,80 0 1,1 -160,0 z M 330 330 m -80, 0 a 80,80 0 1,1 160,0 a 80,80 0 1,1 -160,0 z M 330 80 m -80, 0 a 80,80 0 1,1 160,0 a 80,80 0 1,1 -160,0 z " horiz-adv-x="760" unicode=")"/>
<glyph d="M 80 580 m -80, 0 a 80,80 0 1,1 160,0 a 80,80 0 1,1 -160,0 z M 80 330 m -80, 0 a 80,80 0 1,1 160,0 a 80,80 0 1,1 -160,0 z M 80 80 m -80, 0 a 80,80 0 1,1 160,0 a 80,80 0 1,1 -160,0 z M 330 580 m -80, 0 a 80,80 0 1,1 160,0 a 80,80 0 1,1 -160,0 z M 330 330 m -80, 0 a 80,80 0 1,1 160,0 a 80,80 0 1,1 -160,0 z M 330 80 m -80, 0 a 80,80 0 1,1 160,0 a 80,80 0 1,1 -160,0 z " horiz-adv-x="760" unicode="="/>
</font>
</defs>
</svg>
